<svg width="180" height="180" viewBox="0 0 180 180" fill="none" xmlns="http://www.w3.org/2000/svg">
  <!-- Background with gradient -->
  <defs>
    <linearGradient id="bg" x1="0%" y1="0%" x2="100%" y2="100%">
      <stop offset="0%" stop-color="#3B82F6"/>
      <stop offset="100%" stop-color="#1E40AF"/>
    </linearGradient>
    <linearGradient id="accent" x1="0%" y1="0%" x2="100%" y2="0%">
      <stop offset="0%" stop-color="#10B981"/>
      <stop offset="100%" stop-color="#059669"/>
    </linearGradient>
  </defs>
  
  <!-- Rounded background -->
  <rect width="180" height="180" rx="30" fill="url(#bg)"/>
  
  <!-- Document/Blog icon -->
  <rect x="35" y="30" width="110" height="120" rx="12" fill="white" opacity="0.95"/>
  
  <!-- Text lines representing blog content -->
  <rect x="50" y="50" width="80" height="8" rx="4" fill="#1E40AF"/>
  <rect x="50" y="70" width="60" height="6" rx="3" fill="#6B7280"/>
  <rect x="50" y="85" width="70" height="6" rx="3" fill="#6B7280"/>
  <rect x="50" y="100" width="55" height="6" rx="3" fill="#6B7280"/>
  <rect x="50" y="115" width="75" height="6" rx="3" fill="#6B7280"/>
  <rect x="50" y="130" width="45" height="6" rx="3" fill="#6B7280"/>
  
  <!-- MDX/React indicator -->
  <circle cx="135" cy="55" r="18" fill="url(#accent)"/>
  <path d="M127 55L132 60L143 49" stroke="white" stroke-width="6" stroke-linecap="round" stroke-linejoin="round"/>
  
  <!-- Smart component indicator -->
  <rect x="115" y="125" width="25" height="18" rx="6" fill="url(#accent)" opacity="0.8"/>
  <circle cx="127.5" cy="134" r="3" fill="white"/>
</svg>